# Blender v3.0.0 Beta OBJ File: 'Card.blend'
# www.blender.org
mtllib packF.mtl
o pack
v 0.850000 -0.090000 1.530000
v -0.850000 -0.090000 1.530000
v 1.050000 -0.067500 1.530000
v -1.050000 -0.067500 -1.530000
v -0.850000 -0.090000 -1.530000
v -1.050000 -0.067500 1.530000
v -1.150000 -0.045000 -1.530000
v 1.150000 -0.045000 1.530000
v -1.150000 -0.045000 1.530000
v 1.300000 -0.000000 2.070000
v -1.300000 -0.000000 1.800000
v 1.300000 -0.000000 1.800000
v 1.300000 -0.000000 2.070000
v -1.300000 -0.000000 2.070000
v -1.300000 -0.000000 1.800000
v -1.300000 0.000000 -2.070000
v 1.300000 0.000000 -1.800000
v -1.300000 0.000000 -1.800000
v -1.300000 0.000000 -2.070000
v 1.300000 0.000000 -2.070000
v 1.300000 0.000000 -1.800000
v 0.850000 -0.090000 -1.530000
v 1.150000 -0.045000 -1.530000
v 1.050000 -0.067500 -1.530000
v -0.850000 0.090000 1.530000
v -0.850000 0.090000 -1.530000
v 0.850000 0.090000 1.530000
v 1.150000 0.045000 -1.530000
v 1.150000 0.045000 1.530000
v 1.050000 0.067500 -1.530000
v 0.850000 0.090000 -1.530000
v -1.050000 0.067500 -1.530000
v -1.150000 0.045000 1.530000
v 1.200000 -0.000000 1.530000
v 1.050000 0.067500 1.530000
v 1.300000 -0.000000 1.800000
v -1.050000 0.067500 1.530000
v -1.200000 -0.000000 1.530000
v -1.300000 -0.000000 1.800000
v -1.300000 -0.000000 1.800000
v 1.300000 -0.000000 2.070000
v 1.300000 -0.000000 1.800000
v -1.300000 -0.000000 2.070000
v 1.300000 -0.000000 2.070000
v -1.300000 -0.000000 1.800000
v 1.300000 0.000000 -1.800000
v -1.300000 0.000000 -2.070000
v -1.300000 0.000000 -1.800000
v 1.300000 0.000000 -2.070000
v -1.300000 0.000000 -2.070000
v 1.300000 0.000000 -1.800000
v -1.300000 0.000000 -1.800000
v 1.300000 0.000000 -1.800000
v 1.200000 0.000000 -1.530000
v -1.150000 0.045000 -1.530000
v -1.200000 0.000000 -1.530000
vt 0.176100 0.130600
vt 0.823800 0.130600
vt 0.823800 0.868400
vt 0.176100 0.868400
vt 0.023300 0.130200
vt 0.061500 0.130200
vt 0.061500 0.868000
vt 0.023300 0.868000
vt 0.061500 0.868400
vt 0.061500 0.130600
vt 0.099700 0.868400
vt 0.099700 0.130600
vt 0.900200 0.130600
vt 0.900200 0.868400
vt 0.938400 0.130600
vt 0.938400 0.868400
vt 0.937600 0.130600
vt 0.975800 0.130600
vt 0.975800 0.868400
vt 0.937600 0.868400
vt 0.004200 0.065500
vt 0.995700 0.065500
vt 0.005000 0.065100
vt 0.996500 0.065500
vt 0.004200 0.000400
vt 0.995700 0.065500
vt 0.004200 0.065500
vt 0.004200 0.000400
vt 0.995700 0.000400
vt 0.995700 0.065500
vt 0.995700 0.998600
vt 0.004200 0.933500
vt 0.995700 0.933500
vt 0.995700 0.998600
vt 0.004200 0.998600
vt 0.004200 0.933500
vt 0.995700 0.933500
vt 0.004200 0.933500
vt 0.005000 0.933100
vt 0.996500 0.933500
vt 0.176100 0.130600
vt 0.823800 0.130600
vt 0.176100 0.868400
vt 0.823800 0.868400
vt 0.937600 0.130600
vt 0.975800 0.130600
vt 0.937600 0.868400
vt 0.975800 0.868400
vt 0.938400 0.130600
vt 0.938400 0.868400
vt 0.900200 0.868400
vt 0.900200 0.130600
vt 0.099700 0.130600
vt 0.099700 0.868400
vt 0.061500 0.130600
vt 0.061500 0.868400
vt 0.024100 0.130600
vt 0.062300 0.130600
vt 0.024100 0.868400
vt 0.062300 0.868400
vt 0.995700 0.065500
vt 0.004200 0.065500
vt 0.994200 0.065500
vt 0.003400 0.065500
vt 0.004200 0.065500
vt 0.995700 0.000400
vt 0.995700 0.065500
vt 0.004200 0.000400
vt 0.995700 0.000400
vt 0.004200 0.065500
vt 0.995700 0.933500
vt 0.004200 0.998600
vt 0.004200 0.933500
vt 0.995700 0.998600
vt 0.004200 0.998600
vt 0.995700 0.933500
vt 0.004200 0.933500
vt 0.995700 0.933500
vt 0.994200 0.933500
vt 0.003400 0.933500
vn 0.0381 -0.9888 0.1445
vn -0.0381 -0.9888 0.1445
vn -0.0381 -0.9888 -0.1445
vn 0.0381 -0.9888 -0.1445
vn 0.9812 0.0000 -0.1929
vn 0.4208 -0.9066 -0.0294
vn 0.4208 -0.9066 0.0294
vn 0.9812 0.0000 0.1929
vn 0.1527 -0.9865 -0.0586
vn 0.1527 -0.9865 0.0586
vn -0.1527 -0.9865 0.0586
vn -0.1527 -0.9865 -0.0586
vn -0.4208 -0.9066 -0.0294
vn -0.4208 -0.9066 0.0294
vn -0.9812 0.0000 -0.1929
vn -0.9812 0.0000 0.1929
vn 0.7774 0.0000 0.6290
vn -0.7774 0.0000 0.6290
vn 0.0000 -1.0000 0.0000
vn -0.7774 0.0000 -0.6290
vn 0.7774 0.0000 -0.6290
vn -0.0381 0.9888 0.1445
vn 0.0381 0.9888 0.1445
vn -0.0381 0.9888 -0.1445
vn 0.0381 0.9888 -0.1445
vn 0.4208 0.9066 -0.0294
vn 0.4208 0.9066 0.0294
vn 0.1527 0.9865 -0.0586
vn 0.1527 0.9865 0.0586
vn -0.1527 0.9865 0.0586
vn -0.1527 0.9865 -0.0586
vn -0.4208 0.9066 -0.0294
vn -0.4208 0.9066 0.0294
vn 0.0000 1.0000 0.0000
usemtl Default_OBJ.001
s 1
f 1/1/1 2/2/2 5/3/3
f 1/1/1 5/3/3 22/4/4
f 34/5/5 8/6/6 23/7/7
f 54/8/8 34/5/5 23/7/7
f 23/9/7 8/10/6 24/11/9
f 8/10/6 3/12/10 24/11/9
f 3/12/10 22/4/4 24/11/9
f 3/12/10 1/1/1 22/4/4
f 2/2/2 6/13/11 4/14/12
f 2/2/2 4/14/12 5/3/3
f 6/13/11 9/15/13 7/16/14
f 6/13/11 7/16/14 4/14/12
f 9/17/13 38/18/15 56/19/16
f 9/17/13 56/19/16 7/20/14
f 36/21/17 2/2/2 1/1/1
f 36/21/17 39/22/18 2/2/2
f 36/23/17 8/6/6 34/5/5
f 36/21/17 3/12/10 8/10/6
f 36/21/17 1/1/1 3/12/10
f 39/22/18 6/13/11 2/2/2
f 39/22/18 9/15/13 6/13/11
f 39/24/18 38/18/15 9/17/13
f 10/25/19 11/26/19 12/27/19
f 13/28/19 14/29/19 15/30/19
f 16/31/19 17/32/19 18/33/19
f 19/34/19 20/35/19 21/36/19
f 52/37/20 22/4/4 5/3/3
f 52/37/20 53/38/21 22/4/4
f 23/7/7 53/39/21 54/8/8
f 24/11/9 53/38/21 23/9/7
f 22/4/4 53/38/21 24/11/9
f 4/14/12 52/37/20 5/3/3
f 7/16/14 52/37/20 4/14/12
f 56/19/16 52/40/20 7/20/14
f 25/41/22 27/42/23 26/43/24
f 26/43/24 27/42/23 31/44/25
f 29/45/26 34/46/5 28/47/27
f 34/46/5 54/48/8 28/47/27
f 29/49/26 28/50/27 30/51/28
f 35/52/29 29/49/26 30/51/28
f 31/44/25 35/52/29 30/51/28
f 27/42/23 35/52/29 31/44/25
f 37/53/30 25/41/22 32/54/31
f 32/54/31 25/41/22 26/43/24
f 33/55/32 37/53/30 55/56/33
f 55/56/33 37/53/30 32/54/31
f 38/57/15 33/58/32 56/59/16
f 56/59/16 33/58/32 55/60/33
f 25/41/22 36/61/17 27/42/23
f 39/62/18 36/61/17 25/41/22
f 29/45/26 36/63/17 34/46/5
f 35/52/29 36/61/17 29/49/26
f 27/42/23 36/61/17 35/52/29
f 37/53/30 39/62/18 25/41/22
f 33/55/32 39/62/18 37/53/30
f 38/57/15 39/64/18 33/58/32
f 40/65/34 41/66/34 42/67/34
f 43/68/34 44/69/34 45/70/34
f 46/71/34 47/72/34 48/73/34
f 49/74/34 50/75/34 51/76/34
f 31/44/25 52/77/20 26/43/24
f 53/78/21 52/77/20 31/44/25
f 53/79/21 28/47/27 54/48/8
f 53/78/21 30/51/28 28/50/27
f 53/78/21 31/44/25 30/51/28
f 52/77/20 32/54/31 26/43/24
f 52/77/20 55/56/33 32/54/31
f 52/80/20 56/59/16 55/60/33
