# Blender v2.79 (sub 0) OBJ File: ''
# www.blender.org
mtllib Board.mtl
o Curve_CUCurve
v -13.655319 0.525000 12.135498
v -13.655319 0.525000 0.000000
v 13.655319 0.525000 0.000000
v 13.655319 0.525000 12.135498
v -13.655319 -0.525000 12.135498
v -13.655319 0.525000 12.135498
v -13.655319 -0.525000 0.000000
v -13.655319 0.525000 0.000000
v 13.655319 -0.525000 0.000000
v 13.655319 0.525000 0.000000
v 13.655319 -0.525000 12.135498
v 13.655319 0.525000 12.135498
vt 0.000100 0.999689
vt 0.999900 0.000100
vt 0.999900 0.999689
vt 0.000100 0.000100
vt 0.000000 1.000000
vt 0.013889 0.000000
vt 0.013889 1.000000
vt 1.000000 0.968750
vt 0.000000 1.000000
vt 0.000000 0.968750
vt 0.986155 1.000044
vt 0.999956 0.000044
vt 0.999956 1.000044
vt 0.000000 0.062500
vt 1.000000 0.000000
vt 1.000000 0.062500
vt 0.500000 0.500000
vt 0.500000 0.500000
vt 0.500000 0.500000
vt 0.000000 0.000046
vt 1.000000 1.000000
vt 0.986155 0.000045
vt 0.000000 0.000000
vt 0.500000 0.500000
vn 0.0000 1.0000 0.0000
vn -1.0000 0.0000 0.0000
vn 0.0000 0.0000 -1.0000
vn 1.0000 0.0000 0.0000
vn 0.0000 0.0000 1.0000
vn 0.0000 -1.0000 0.0000
usemtl SVGMat
s off
f 8/1/1 12/2/1 10/3/1
f 8/1/1 6/4/1 12/2/1
f 8/5/2 5/6/2 6/7/2
f 10/8/3 7/9/3 8/10/3
f 12/11/4 9/12/4 10/13/4
f 6/14/5 11/15/5 12/16/5
f 11/17/6 7/18/6 9/19/6
f 8/5/2 7/20/2 5/6/2
f 10/8/3 9/21/3 7/9/3
f 12/11/4 11/22/4 9/12/4
f 6/14/5 5/23/5 11/15/5
f 11/17/6 5/24/6 7/18/6
l 3 4
l 1 4
l 2 3
l 1 2
