g tokenSCBase
v 0.2991392 1.862645E-08 -0.05950241
v 0.2991392 0.03273111 -0.05950241
v 0.281783 0.03273111 -0.1167182
v 0.281783 2.235174E-08 -0.1167182
v 0.2535981 0.03273109 -0.1694487
v 0.2535981 -4.470348E-08 -0.1694487
v 0.2156675 0.03273109 -0.2156674
v 0.2156675 -4.470348E-08 -0.2156674
v 0.1694489 0.03273108 -0.2535979
v 0.1694489 2.980232E-08 -0.2535979
v 0.3050001 1.949957E-08 -7.358796E-08
v 0.3050001 0.03273104 -7.358796E-08
v 0.2991395 1.862645E-08 0.05950247
v 0.2991395 0.0327311 0.05950247
v 0.2817833 2.235174E-08 0.1167184
v 0.2817833 0.03273111 0.1167184
v 0.2535982 -4.470348E-08 0.1694489
v 0.2535982 0.03273112 0.1694489
v 0.2156675 -4.470348E-08 0.2156675
v 0.2156675 0.03273109 0.2156675
v 0.1694489 2.980232E-08 0.2535982
v 0.1694489 0.03273109 0.2535982
v 0.1694489 2.980232E-08 -0.2535979
v 0.1694489 0.03273108 -0.2535979
v 0.1167185 0.03273108 -0.281783
v 0.1167185 2.980232E-08 -0.281783
v 0.05950262 0.03273108 -0.2991392
v 0.05950262 2.980232E-08 -0.2991392
v 1.712096E-07 0.03273108 -0.3049998
v 1.712096E-07 2.980232E-08 -0.3049998
v -0.05950234 0.03273108 -0.2991394
v -0.05950234 2.980232E-08 -0.2991394
v -0.1167182 0.03273108 -0.2817831
v -0.1167182 2.980232E-08 -0.2817831
v -0.1694487 0.03273108 -0.2535982
v -0.1694487 2.980232E-08 -0.2535982
v -0.2156673 0.03273109 -0.2156675
v -0.2156673 -4.470348E-08 -0.2156675
v -0.2535979 0.03273109 -0.169449
v -0.2535979 -4.470348E-08 -0.169449
v -0.2535979 -4.470348E-08 -0.169449
v -0.2535979 0.03273109 -0.169449
v -0.281783 0.03273111 -0.1167185
v -0.281783 2.235174E-08 -0.1167185
v -0.2991393 0.03273111 -0.05950268
v -0.2991393 1.862645E-08 -0.05950268
v -0.3049998 0.03273104 -1.629949E-07
v -0.3049998 1.949957E-08 -1.629949E-07
v -0.2991393 0.0327311 0.05950235
v -0.2991393 1.862645E-08 0.05950235
v -0.2817831 0.03273111 0.1167182
v -0.2817831 2.235174E-08 0.1167182
v -0.2535981 0.03273109 0.1694487
v -0.2535981 -4.470348E-08 0.1694487
v -0.2156675 0.03273112 0.2156673
v -0.2156675 -4.470348E-08 0.2156673
v -0.1694489 0.03273109 0.253598
v -0.1694489 2.980232E-08 0.253598
v -0.1694489 2.980232E-08 0.253598
v -0.1694489 0.03273109 0.253598
v -0.1167184 0.03273108 0.2817831
v -0.1167184 2.980232E-08 0.2817831
v -0.05950258 0.03273108 0.2991394
v -0.05950258 2.980232E-08 0.2991394
v -3.740661E-08 0.03273108 0.3049999
v -3.740661E-08 2.980232E-08 0.3049999
v 0.0595025 0.03273108 0.2991394
v 0.0595025 2.980232E-08 0.2991394
v 0.1167184 0.03273108 0.2817832
v 0.1167184 2.980232E-08 0.2817832
v 0.1694489 0.03273109 0.2535982
v 0.1694489 2.980232E-08 0.2535982
v 0.281783 2.235174E-08 -0.1167182
v 2.219803E-08 1.949957E-08 -7.358796E-08
v 0.2991392 1.862645E-08 -0.05950241
v 0.2535981 -4.470348E-08 -0.1694487
v 0.2156675 -4.470348E-08 -0.2156674
v 0.1694489 2.980232E-08 -0.2535979
v 0.1167185 2.980232E-08 -0.281783
v 0.05950262 2.980232E-08 -0.2991392
v 1.712096E-07 2.980232E-08 -0.3049998
v -0.05950234 2.980232E-08 -0.2991394
v -0.1167182 2.980232E-08 -0.2817831
v -0.1694487 2.980232E-08 -0.2535982
v -0.2156673 -4.470348E-08 -0.2156675
v -0.2535979 -4.470348E-08 -0.169449
v -0.281783 2.235174E-08 -0.1167185
v -0.2991393 1.862645E-08 -0.05950268
v -0.3049998 1.949957E-08 -1.629949E-07
v -0.2991393 1.862645E-08 0.05950235
v -0.2817831 2.235174E-08 0.1167182
v -0.2535981 -4.470348E-08 0.1694487
v -0.2156675 -4.470348E-08 0.2156673
v -0.1694489 2.980232E-08 0.253598
v -0.1167184 2.980232E-08 0.2817831
v -0.05950258 2.980232E-08 0.2991394
v -3.740661E-08 2.980232E-08 0.3049999
v 0.0595025 2.980232E-08 0.2991394
v 0.1167184 2.980232E-08 0.2817832
v 0.1694489 2.980232E-08 0.2535982
v 0.2156675 -4.470348E-08 0.2156675
v 0.2535982 -4.470348E-08 0.1694489
v 0.2817833 2.235174E-08 0.1167184
v 0.2991395 1.862645E-08 0.05950247
v 0.3050001 1.949957E-08 -7.358796E-08
v 0.2991392 0.03273111 -0.05950241
v 2.219803E-08 0.03273104 -7.358796E-08
v 0.281783 0.03273111 -0.1167182
v 0.2535981 0.03273109 -0.1694487
v 0.2156675 0.03273109 -0.2156674
v 0.1694489 0.03273108 -0.2535979
v 0.1167185 0.03273108 -0.281783
v 0.05950262 0.03273108 -0.2991392
v 1.712096E-07 0.03273108 -0.3049998
v -0.05950234 0.03273108 -0.2991394
v -0.1167182 0.03273108 -0.2817831
v -0.1694487 0.03273108 -0.2535982
v -0.2156673 0.03273109 -0.2156675
v -0.2535979 0.03273109 -0.169449
v -0.281783 0.03273111 -0.1167185
v -0.2991393 0.03273111 -0.05950268
v -0.3049998 0.03273104 -1.629949E-07
v -0.2991393 0.0327311 0.05950235
v -0.2817831 0.03273111 0.1167182
v -0.2535981 0.03273109 0.1694487
v -0.2156675 0.03273112 0.2156673
v -0.1694489 0.03273109 0.253598
v -0.1167184 0.03273108 0.2817831
v -0.05950258 0.03273108 0.2991394
v -3.740661E-08 0.03273108 0.3049999
v 0.0595025 0.03273108 0.2991394
v 0.1167184 0.03273108 0.2817832
v 0.1694489 0.03273109 0.2535982
v 0.2156675 0.03273109 0.2156675
v 0.2535982 0.03273112 0.1694489
v 0.2817833 0.03273111 0.1167184
v 0.2991395 0.0327311 0.05950247
v 0.3050001 0.03273104 -7.358796E-08
vt 0.9511307 0.8981111
vt 0.9605599 0.8981111
vt 0.9605599 0.8846236
vt 0.9511307 0.8846236
vt 0.9605599 0.8721933
vt 0.9511307 0.8721933
vt 0.9605599 0.8612981
vt 0.9511307 0.8612981
vt 0.9605599 0.8523567
vt 0.9511307 0.8523567
vt 0.9511307 0.9121377
vt 0.9605599 0.9121377
vt 0.9511307 0.9261644
vt 0.9605599 0.9261644
vt 0.9511307 0.939652
vt 0.9605599 0.939652
vt 0.9511307 0.9520823
vt 0.9605599 0.9520823
vt 0.9511307 0.9629775
vt 0.9605599 0.9629775
vt 0.9511307 0.9719189
vt 0.9605599 0.9719189
vt 0.9820946 0.8523567
vt 0.9726654 0.8523567
vt 0.9726654 0.8647869
vt 0.9820946 0.8647869
vt 0.9726654 0.8782746
vt 0.9820946 0.8782746
vt 0.9726654 0.8923011
vt 0.9820946 0.8923011
vt 0.9726654 0.9063278
vt 0.9820946 0.9063278
vt 0.9726654 0.9198154
vt 0.9820946 0.9198154
vt 0.9726654 0.9322456
vt 0.9820946 0.9322456
vt 0.9726654 0.9431409
vt 0.9820946 0.9431409
vt 0.9726654 0.9520823
vt 0.9820946 0.9520823
vt 0.961898 0.9520823
vt 0.9713274 0.9520823
vt 0.9713274 0.9396521
vt 0.961898 0.9396521
vt 0.9713274 0.9261645
vt 0.961898 0.9261645
vt 0.9713274 0.9121377
vt 0.961898 0.9121377
vt 0.9713274 0.8981113
vt 0.961898 0.8981113
vt 0.9713274 0.8846236
vt 0.961898 0.8846236
vt 0.9713274 0.8721933
vt 0.961898 0.8721933
vt 0.9713274 0.8612981
vt 0.961898 0.8612981
vt 0.9713274 0.8523567
vt 0.961898 0.8523567
vt 0.9832483 0.9321957
vt 0.9926775 0.9321957
vt 0.9926775 0.9197654
vt 0.9832483 0.9197654
vt 0.9926775 0.9062778
vt 0.9832483 0.9062778
vt 0.9926775 0.8922511
vt 0.9832483 0.8922511
vt 0.9926775 0.8782246
vt 0.9832483 0.8782246
vt 0.9926775 0.8647369
vt 0.9832483 0.8647369
vt 0.9926775 0.8523066
vt 0.9832483 0.8523066
vt 0.8504794 0.8578297
vt 0.8779937 0.924255
vt 0.8639669 0.8537382
vt 0.8380491 0.8644738
vt 0.827154 0.8734152
vt 0.8182124 0.8843104
vt 0.8115684 0.8967407
vt 0.8074769 0.9102283
vt 0.8060954 0.9242549
vt 0.8074769 0.9382815
vt 0.8115683 0.9517691
vt 0.8182124 0.9641993
vt 0.8271539 0.9750946
vt 0.8380491 0.984036
vt 0.8504793 0.9906802
vt 0.8639669 0.9947716
vt 0.8779935 0.9961531
vt 0.8920202 0.9947717
vt 0.9055079 0.9906802
vt 0.9179381 0.9840361
vt 0.9288334 0.9750946
vt 0.9377748 0.9641994
vt 0.9444189 0.9517691
vt 0.9485103 0.9382815
vt 0.9498918 0.924255
vt 0.9485102 0.9102283
vt 0.9444189 0.8967407
vt 0.9377748 0.8843104
vt 0.9288334 0.8734152
vt 0.9179381 0.8644738
vt 0.9055078 0.8578296
vt 0.8920203 0.8537382
vt 0.8779937 0.8523567
vt 0.9771661 0.5949141
vt 0.4999998 0.5000001
vt 0.9494807 0.6861809
vt 0.904522 0.7702929
vt 0.8440177 0.8440177
vt 0.7702931 0.9045221
vt 0.6861811 0.9494808
vt 0.5949143 0.9771665
vt 0.5 0.9865147
vt 0.4050857 0.9771665
vt 0.3138189 0.949481
vt 0.2297069 0.9045225
vt 0.1559821 0.844018
vt 0.0954777 0.7702934
vt 0.05051887 0.6861814
vt 0.02283332 0.5949146
vt 0.01348504 0.5000002
vt 0.02283326 0.405086
vt 0.05051869 0.3138191
vt 0.0954774 0.2297071
vt 0.1559817 0.1559823
vt 0.2297065 0.09547788
vt 0.3138185 0.05051899
vt 0.4050854 0.02283347
vt 0.4999997 0.01348516
vt 0.5949141 0.02283341
vt 0.6861809 0.05051887
vt 0.7702929 0.09547764
vt 0.8440178 0.155982
vt 0.9045222 0.2297068
vt 0.949481 0.3138189
vt 0.9771665 0.4050858
vt 0.9865149 0.5000001
vn 0.9807847 0 -0.1950936
vn 0.9807847 0 -0.1950936
vn 0.9238801 0 -0.382682
vn 0.9238801 0 -0.382682
vn 0.8314703 0 -0.5555692
vn 0.8314703 0 -0.5555692
vn 0.7071068 0 -0.7071067
vn 0.7071068 0 -0.7071067
vn 0.5555702 0 -0.8314696
vn 0.5555702 0 -0.8314696
vn 1 0 0
vn 1 0 0
vn 0.9807851 0 0.1950911
vn 0.9807851 0 0.1950912
vn 0.9238794 0 0.3826835
vn 0.9238795 0 0.3826835
vn 0.8314694 0 0.5555707
vn 0.8314695 0 0.5555705
vn 0.7071065 0 0.707107
vn 0.7071064 0 0.7071071
vn 0.5555702 0 0.8314697
vn 0.5555701 0 0.8314697
vn 0.5555702 0 -0.8314696
vn 0.5555702 0 -0.8314696
vn 0.3826839 0 -0.9238794
vn 0.3826839 0 -0.9238794
vn 0.1950914 0 -0.9807851
vn 0.1950914 0 -0.9807851
vn 0 0 -1
vn 0 0 -1
vn -0.1950903 0 -0.9807853
vn -0.1950903 0 -0.9807853
vn -0.3826828 0 -0.9238798
vn -0.3826828 0 -0.9238798
vn -0.5555696 0 -0.83147
vn -0.5555696 0 -0.83147
vn -0.7071065 0 -0.707107
vn -0.7071065 0 -0.7071069
vn -0.8314692 0 -0.5555708
vn -0.8314692 0 -0.5555708
vn -0.8314692 0 -0.5555708
vn -0.8314692 0 -0.5555708
vn -0.9238793 0 -0.382684
vn -0.9238793 0 -0.3826841
vn -0.9807851 0 -0.1950908
vn -0.9807853 0 -0.1950908
vn -1 0 0
vn -1 0 0
vn -0.9807854 0 0.1950899
vn -0.9807854 0 0.1950899
vn -0.9238797 0 0.382683
vn -0.9238797 0 0.3826831
vn -0.8314699 0 0.5555699
vn -0.8314699 0 0.5555699
vn -0.7071072 0 0.7071063
vn -0.7071072 0 0.7071063
vn -0.555571 0 0.8314691
vn -0.5555709 0 0.8314691
vn -0.5555709 0 0.8314691
vn -0.555571 0 0.8314691
vn -0.3826838 0 0.9238794
vn -0.3826838 0 0.9238794
vn -0.1950905 0 0.9807853
vn -0.1950905 0 0.9807853
vn 0 0 1
vn 0 0 1
vn 0.19509 0 0.9807854
vn 0.19509 0 0.9807854
vn 0.3826827 0 0.9238798
vn 0.3826827 0 0.9238798
vn 0.5555701 0 0.8314697
vn 0.5555702 0 0.8314697
vn 0 -1 0
vn 0 -1 0
vn 0 -1 0
vn 0 -1 0
vn 0 -1 0
vn 0 -1 0
vn 0 -1 0
vn 0 -1 0
vn 0 -1 0
vn 0 -1 0
vn 0 -1 0
vn 0 -1 0
vn 0 -1 0
vn 0 -1 0
vn 0 -1 0
vn 0 -1 0
vn 0 -1 0
vn 0 -1 0
vn 0 -1 0
vn 0 -1 0
vn 0 -1 0
vn 0 -1 0
vn 0 -1 0
vn 0 -1 0
vn 0 -1 0
vn 0 -1 0
vn 0 -1 0
vn 0 -1 0
vn 0 -1 0
vn 0 -1 0
vn 0 -1 0
vn 0 -1 0
vn 0 -1 0
vn 0 1 0
vn 0 1 0
vn 0 1 0
vn 0 1 0
vn 0 1 0
vn 0 1 0
vn 0 1 0
vn 0 1 0
vn 0 1 0
vn 0 1 0
vn 0 1 0
vn 0 1 0
vn 0 1 0
vn 0 1 0
vn 0 1 0
vn 0 1 0
vn 0 1 0
vn 0 1 0
vn 0 1 0
vn 0 1 0
vn 0 1 0
vn 0 1 0
vn 0 1 0
vn 0 1 0
vn 0 1 0
vn 0 1 0
vn 0 1 0
vn 0 1 0
vn 0 1 0
vn 0 1 0
vn 0 1 0
vn 0 1 0
vn 0 1 0
g tokenSCBase_0
f 3/3/3 2/2/2 1/1/1
f 4/4/4 3/3/3 1/1/1
f 5/5/5 3/3/3 4/4/4
f 6/6/6 5/5/5 4/4/4
f 7/7/7 5/5/5 6/6/6
f 8/8/8 7/7/7 6/6/6
f 9/9/9 7/7/7 8/8/8
f 10/10/10 9/9/9 8/8/8
f 1/1/1 2/2/2 11/11/11
f 2/2/2 12/12/12 11/11/11
f 11/11/11 12/12/12 13/13/13
f 12/12/12 14/14/14 13/13/13
f 13/13/13 14/14/14 15/15/15
f 14/14/14 16/16/16 15/15/15
f 15/15/15 16/16/16 17/17/17
f 16/16/16 18/18/18 17/17/17
f 17/17/17 18/18/18 19/19/19
f 18/18/18 20/20/20 19/19/19
f 19/19/19 20/20/20 21/21/21
f 20/20/20 22/22/22 21/21/21
f 25/25/25 24/24/24 23/23/23
f 26/26/26 25/25/25 23/23/23
f 27/27/27 25/25/25 26/26/26
f 28/28/28 27/27/27 26/26/26
f 29/29/29 27/27/27 28/28/28
f 30/30/30 29/29/29 28/28/28
f 31/31/31 29/29/29 30/30/30
f 32/32/32 31/31/31 30/30/30
f 33/33/33 31/31/31 32/32/32
f 34/34/34 33/33/33 32/32/32
f 35/35/35 33/33/33 34/34/34
f 36/36/36 35/35/35 34/34/34
f 37/37/37 35/35/35 36/36/36
f 38/38/38 37/37/37 36/36/36
f 39/39/39 37/37/37 38/38/38
f 40/40/40 39/39/39 38/38/38
f 43/43/43 42/42/42 41/41/41
f 44/44/44 43/43/43 41/41/41
f 45/45/45 43/43/43 44/44/44
f 46/46/46 45/45/45 44/44/44
f 47/47/47 45/45/45 46/46/46
f 48/48/48 47/47/47 46/46/46
f 49/49/49 47/47/47 48/48/48
f 50/50/50 49/49/49 48/48/48
f 51/51/51 49/49/49 50/50/50
f 52/52/52 51/51/51 50/50/50
f 53/53/53 51/51/51 52/52/52
f 54/54/54 53/53/53 52/52/52
f 55/55/55 53/53/53 54/54/54
f 56/56/56 55/55/55 54/54/54
f 57/57/57 55/55/55 56/56/56
f 58/58/58 57/57/57 56/56/56
f 61/61/61 60/60/60 59/59/59
f 62/62/62 61/61/61 59/59/59
f 63/63/63 61/61/61 62/62/62
f 64/64/64 63/63/63 62/62/62
f 65/65/65 63/63/63 64/64/64
f 66/66/66 65/65/65 64/64/64
f 67/67/67 65/65/65 66/66/66
f 68/68/68 67/67/67 66/66/66
f 69/69/69 67/67/67 68/68/68
f 70/70/70 69/69/69 68/68/68
f 71/71/71 69/69/69 70/70/70
f 72/72/72 71/71/71 70/70/70
f 75/75/75 74/74/74 73/73/73
f 73/73/73 74/74/74 76/76/76
f 76/76/76 74/74/74 77/77/77
f 77/77/77 74/74/74 78/78/78
f 78/78/78 74/74/74 79/79/79
f 79/79/79 74/74/74 80/80/80
f 80/80/80 74/74/74 81/81/81
f 81/81/81 74/74/74 82/82/82
f 82/82/82 74/74/74 83/83/83
f 83/83/83 74/74/74 84/84/84
f 84/84/84 74/74/74 85/85/85
f 85/85/85 74/74/74 86/86/86
f 86/86/86 74/74/74 87/87/87
f 87/87/87 74/74/74 88/88/88
f 88/88/88 74/74/74 89/89/89
f 89/89/89 74/74/74 90/90/90
f 90/90/90 74/74/74 91/91/91
f 91/91/91 74/74/74 92/92/92
f 92/92/92 74/74/74 93/93/93
f 93/93/93 74/74/74 94/94/94
f 94/94/94 74/74/74 95/95/95
f 95/95/95 74/74/74 96/96/96
f 96/96/96 74/74/74 97/97/97
f 97/97/97 74/74/74 98/98/98
f 98/98/98 74/74/74 99/99/99
f 99/99/99 74/74/74 100/100/100
f 100/100/100 74/74/74 101/101/101
f 101/101/101 74/74/74 102/102/102
f 102/102/102 74/74/74 103/103/103
f 103/103/103 74/74/74 104/104/104
f 104/104/104 74/74/74 105/105/105
f 105/105/105 74/74/74 75/75/75
f 108/108/108 107/107/107 106/106/106
f 109/109/109 107/107/107 108/108/108
f 110/110/110 107/107/107 109/109/109
f 111/111/111 107/107/107 110/110/110
f 112/112/112 107/107/107 111/111/111
f 113/113/113 107/107/107 112/112/112
f 114/114/114 107/107/107 113/113/113
f 115/115/115 107/107/107 114/114/114
f 116/116/116 107/107/107 115/115/115
f 117/117/117 107/107/107 116/116/116
f 118/118/118 107/107/107 117/117/117
f 119/119/119 107/107/107 118/118/118
f 120/120/120 107/107/107 119/119/119
f 121/121/121 107/107/107 120/120/120
f 122/122/122 107/107/107 121/121/121
f 123/123/123 107/107/107 122/122/122
f 124/124/124 107/107/107 123/123/123
f 125/125/125 107/107/107 124/124/124
f 126/126/126 107/107/107 125/125/125
f 127/127/127 107/107/107 126/126/126
f 128/128/128 107/107/107 127/127/127
f 129/129/129 107/107/107 128/128/128
f 130/130/130 107/107/107 129/129/129
f 131/131/131 107/107/107 130/130/130
f 132/132/132 107/107/107 131/131/131
f 133/133/133 107/107/107 132/132/132
f 134/134/134 107/107/107 133/133/133
f 135/135/135 107/107/107 134/134/134
f 136/136/136 107/107/107 135/135/135
f 137/137/137 107/107/107 136/136/136
f 138/138/138 107/107/107 137/137/137
f 106/106/106 107/107/107 138/138/138
