# Blender v2.79 (sub 0) OBJ File: ''
# www.blender.org
mtllib Coin.mtl
o coinMesh_2
v -0.923878 0.060000 0.382683
v -0.000000 0.060000 -0.000000
v -0.980784 0.060000 0.195090
v -0.831469 0.060000 0.555569
v -0.707106 0.060000 0.707106
v -0.555570 0.060000 0.831469
v -0.382683 0.060000 0.923878
v -0.195090 0.060000 0.980784
v -0.000000 0.060000 0.999999
v 0.195090 0.060000 0.980784
v 0.382683 0.060000 0.923879
v 0.555570 0.060000 0.831469
v 0.707106 0.060000 0.707106
v 0.831469 0.060000 0.555570
v 0.923879 0.060000 0.382683
v 0.980785 0.060000 0.195090
v 0.999999 0.060000 -0.000000
v 0.980785 0.060000 -0.195090
v 0.923879 0.060000 -0.382683
v 0.831469 0.060000 -0.555570
v 0.707106 0.060000 -0.707106
v 0.555570 0.060000 -0.831469
v 0.382683 0.060000 -0.923879
v 0.195090 0.060000 -0.980785
v -0.000000 0.060000 -1.000000
v -0.195090 0.060000 -0.980785
v -0.382683 0.060000 -0.923879
v -0.555570 0.060000 -0.831469
v -0.707107 0.060000 -0.707107
v -0.831470 0.060000 -0.555570
v -0.923880 0.060000 -0.382683
v -0.980785 0.060000 -0.195090
v -1.000000 0.060000 0.000000
v -0.923878 0.060000 0.382683
v -0.980784 0.060000 0.195090
v -0.980784 -0.060000 0.195090
v -0.923878 -0.060000 0.382683
v -0.831469 0.060000 0.555569
v -0.831469 -0.060000 0.555569
v -0.707106 0.060000 0.707106
v -0.707106 -0.060000 0.707106
v -0.555570 0.060000 0.831469
v -0.555570 -0.060000 0.831469
v -0.382683 0.060000 0.923878
v -0.382683 -0.060000 0.923878
v -0.195090 0.060000 0.980784
v -0.195090 -0.060000 0.980784
v -0.000000 0.060000 0.999999
v -0.000000 -0.060000 0.999999
v 0.195090 0.060000 0.980784
v 0.195090 -0.060000 0.980784
v 0.382683 0.060000 0.923879
v 0.195090 0.060000 0.980784
v 0.195090 -0.060000 0.980784
v 0.382683 -0.060000 0.923879
v 0.555570 0.060000 0.831469
v 0.555570 -0.060000 0.831469
v 0.707106 0.060000 0.707106
v 0.707106 -0.060000 0.707106
v 0.831469 0.060000 0.555570
v 0.831469 -0.060000 0.555570
v 0.923879 0.060000 0.382683
v 0.923879 -0.060000 0.382683
v 0.980785 0.060000 0.195090
v 0.980785 -0.060000 0.195090
v 0.999999 0.060000 -0.000000
v 0.999999 -0.060000 0.000000
v 0.980785 0.060000 -0.195090
v 0.980785 -0.060000 -0.195090
v 0.923879 0.060000 -0.382683
v 0.980785 0.060000 -0.195090
v 0.980785 -0.060000 -0.195090
v 0.923879 -0.060000 -0.382683
v 0.831469 0.060000 -0.555570
v 0.831469 -0.060000 -0.555570
v 0.707106 0.060000 -0.707106
v 0.707106 -0.060000 -0.707106
v 0.555570 0.060000 -0.831469
v 0.555570 -0.060000 -0.831469
v 0.382683 0.060000 -0.923879
v 0.382683 -0.060000 -0.923879
v 0.195090 0.060000 -0.980785
v 0.195090 -0.060000 -0.980785
v -0.000000 0.060000 -1.000000
v -0.000000 -0.060000 -1.000000
v -0.195090 0.060000 -0.980785
v -0.195090 -0.060000 -0.980785
v -0.382683 0.060000 -0.923879
v -0.195090 0.060000 -0.980785
v -0.195090 -0.060000 -0.980785
v -0.382683 -0.060000 -0.923879
v -0.555570 0.060000 -0.831469
v -0.555570 -0.060000 -0.831469
v -0.707107 0.060000 -0.707107
v -0.707107 -0.060000 -0.707107
v -0.831470 0.060000 -0.555570
v -0.831470 -0.060000 -0.555570
v -0.923880 0.060000 -0.382683
v -0.923880 -0.060000 -0.382683
v -0.980785 0.060000 -0.195090
v -0.980785 -0.060000 -0.195090
v -1.000000 0.060000 0.000000
v -1.000000 -0.060000 0.000000
v -0.980784 0.060000 0.195090
v -0.980784 -0.060000 0.195090
v -0.980784 -0.060000 0.195090
v 0.000000 -0.060000 0.000000
v -0.923878 -0.060000 0.382683
v -0.831469 -0.060000 0.555569
v -0.707106 -0.060000 0.707106
v -0.555570 -0.060000 0.831469
v -0.382683 -0.060000 0.923878
v -0.195090 -0.060000 0.980784
v -0.000000 -0.060000 0.999999
v 0.195090 -0.060000 0.980784
v 0.382683 -0.060000 0.923879
v 0.555570 -0.060000 0.831469
v 0.707106 -0.060000 0.707106
v 0.831469 -0.060000 0.555570
v 0.923879 -0.060000 0.382683
v 0.980785 -0.060000 0.195090
v 0.999999 -0.060000 0.000000
v 0.980785 -0.060000 -0.195090
v 0.923879 -0.060000 -0.382683
v 0.831469 -0.060000 -0.555570
v 0.707106 -0.060000 -0.707106
v 0.555570 -0.060000 -0.831469
v 0.382683 -0.060000 -0.923879
v 0.195090 -0.060000 -0.980785
v -0.000000 -0.060000 -1.000000
v -0.195090 -0.060000 -0.980785
v -0.382683 -0.060000 -0.923879
v -0.555570 -0.060000 -0.831469
v -0.707107 -0.060000 -0.707107
v -0.831470 -0.060000 -0.555570
v -0.923880 -0.060000 -0.382683
v -0.980785 -0.060000 -0.195090
v -1.000000 -0.060000 0.000000
vt 0.079473 0.358731
vt 0.250000 0.500000
vt 0.068970 0.427982
vt 0.096530 0.294909
vt 0.119484 0.238969
vt 0.147454 0.193060
vt 0.179365 0.158946
vt 0.213991 0.137939
vt 0.250000 0.130846
vt 0.286009 0.137939
vt 0.320634 0.158946
vt 0.352545 0.193060
vt 0.380516 0.238968
vt 0.403470 0.294909
vt 0.420527 0.358730
vt 0.431030 0.427981
vt 0.434577 0.500000
vt 0.431031 0.572018
vt 0.420527 0.641269
vt 0.403470 0.705091
vt 0.380516 0.761031
vt 0.352546 0.806940
vt 0.320635 0.841054
vt 0.286009 0.862061
vt 0.250000 0.869154
vt 0.213991 0.862061
vt 0.179366 0.841054
vt 0.147455 0.806940
vt 0.119484 0.761031
vt 0.096530 0.705091
vt 0.079473 0.641269
vt 0.068970 0.572018
vt 0.065423 0.500000
vt 0.498286 0.503980
vt 0.497064 0.503980
vt 0.497064 0.503108
vt 0.498286 0.503108
vt 0.499509 0.503980
vt 0.499509 0.503108
vt 0.500731 0.503980
vt 0.500731 0.503108
vt 0.501953 0.503980
vt 0.501953 0.503108
vt 0.503175 0.503980
vt 0.503175 0.503108
vt 0.504398 0.503980
vt 0.504398 0.503108
vt 0.505620 0.503980
vt 0.505620 0.503108
vt 0.506842 0.503980
vt 0.506842 0.503108
vt 0.498286 0.502919
vt 0.497064 0.502919
vt 0.497064 0.502048
vt 0.498286 0.502048
vt 0.499509 0.502919
vt 0.499509 0.502048
vt 0.500731 0.502919
vt 0.500731 0.502048
vt 0.501953 0.502919
vt 0.501953 0.502048
vt 0.503175 0.502919
vt 0.503175 0.502048
vt 0.504398 0.502919
vt 0.504398 0.502048
vt 0.505620 0.502919
vt 0.505620 0.502048
vt 0.506842 0.502919
vt 0.506842 0.502048
vt 0.498286 0.500798
vt 0.497064 0.500798
vt 0.497064 0.499926
vt 0.498286 0.499926
vt 0.499509 0.500798
vt 0.499509 0.499926
vt 0.500731 0.500798
vt 0.500731 0.499926
vt 0.501953 0.500798
vt 0.501953 0.499926
vt 0.503175 0.500798
vt 0.503175 0.499926
vt 0.504398 0.500798
vt 0.504398 0.499926
vt 0.505620 0.500798
vt 0.505620 0.499926
vt 0.506842 0.500798
vt 0.506842 0.499926
vt 0.498286 0.501859
vt 0.497064 0.501859
vt 0.497064 0.500987
vt 0.498286 0.500987
vt 0.499509 0.501859
vt 0.499509 0.500987
vt 0.500731 0.501859
vt 0.500731 0.500987
vt 0.501953 0.501859
vt 0.501953 0.500987
vt 0.503175 0.501859
vt 0.503175 0.500987
vt 0.504398 0.501859
vt 0.504398 0.500987
vt 0.505620 0.501859
vt 0.505620 0.500987
vt 0.506842 0.501859
vt 0.506842 0.500987
vt 0.568970 0.572018
vt 0.750000 0.500000
vt 0.579473 0.641269
vt 0.596530 0.705091
vt 0.619484 0.761031
vt 0.647455 0.806940
vt 0.679365 0.841054
vt 0.713991 0.862061
vt 0.750000 0.869154
vt 0.786009 0.862061
vt 0.820635 0.841054
vt 0.852545 0.806940
vt 0.880516 0.761031
vt 0.903470 0.705091
vt 0.920527 0.641269
vt 0.931030 0.572019
vt 0.934577 0.500000
vt 0.931031 0.427982
vt 0.920527 0.358731
vt 0.903470 0.294909
vt 0.880516 0.238969
vt 0.852546 0.193060
vt 0.820635 0.158946
vt 0.786009 0.137939
vt 0.750000 0.130846
vt 0.713991 0.137939
vt 0.679366 0.158946
vt 0.647455 0.193060
vt 0.619484 0.238969
vt 0.596530 0.294909
vt 0.579473 0.358731
vt 0.568970 0.427982
vt 0.565423 0.500000
vn 0.0000 1.0000 -0.0000
vn -0.9239 -0.0000 0.3827
vn -0.9808 -0.0000 0.1951
vn -0.8315 -0.0000 0.5556
vn -0.7071 -0.0000 0.7071
vn -0.5556 0.0000 0.8315
vn -0.3827 0.0000 0.9239
vn -0.1951 0.0000 0.9808
vn 0.0000 0.0000 1.0000
vn 0.1951 -0.0000 0.9808
vn 0.3827 0.0000 0.9239
vn 0.5556 0.0000 0.8315
vn 0.7071 0.0000 0.7071
vn 0.8315 0.0000 0.5556
vn 0.9239 0.0000 0.3827
vn 0.9808 0.0000 0.1951
vn 1.0000 0.0000 0.0000
vn 0.9808 -0.0000 -0.1951
vn 0.9239 0.0000 -0.3827
vn 0.8315 -0.0000 -0.5556
vn 0.7071 -0.0000 -0.7071
vn 0.5556 0.0000 -0.8315
vn 0.3827 0.0000 -0.9239
vn 0.1951 0.0000 -0.9808
vn 0.0000 0.0000 -1.0000
vn -0.1951 -0.0000 -0.9808
vn -0.3827 0.0000 -0.9239
vn -0.5556 0.0000 -0.8315
vn -0.7071 0.0000 -0.7071
vn -0.8315 0.0000 -0.5556
vn -0.9239 0.0000 -0.3827
vn -0.9808 -0.0000 -0.1951
vn -1.0000 -0.0000 0.0000
vn -0.0000 -1.0000 0.0000
usemtl None
s 1
f 1/1/1 2/2/1 3/3/1
f 4/4/1 2/2/1 1/1/1
f 5/5/1 2/2/1 4/4/1
f 6/6/1 2/2/1 5/5/1
f 7/7/1 2/2/1 6/6/1
f 8/8/1 2/2/1 7/7/1
f 9/9/1 2/2/1 8/8/1
f 10/10/1 2/2/1 9/9/1
f 11/11/1 2/2/1 10/10/1
f 12/12/1 2/2/1 11/11/1
f 13/13/1 2/2/1 12/12/1
f 14/14/1 2/2/1 13/13/1
f 15/15/1 2/2/1 14/14/1
f 16/16/1 2/2/1 15/15/1
f 17/17/1 2/2/1 16/16/1
f 18/18/1 2/2/1 17/17/1
f 19/19/1 2/2/1 18/18/1
f 20/20/1 2/2/1 19/19/1
f 21/21/1 2/2/1 20/20/1
f 22/22/1 2/2/1 21/21/1
f 23/23/1 2/2/1 22/22/1
f 24/24/1 2/2/1 23/23/1
f 25/25/1 2/2/1 24/24/1
f 26/26/1 2/2/1 25/25/1
f 27/27/1 2/2/1 26/26/1
f 28/28/1 2/2/1 27/27/1
f 29/29/1 2/2/1 28/28/1
f 30/30/1 2/2/1 29/29/1
f 31/31/1 2/2/1 30/30/1
f 32/32/1 2/2/1 31/31/1
f 33/33/1 2/2/1 32/32/1
f 3/3/1 2/2/1 33/33/1
f 34/34/2 35/35/3 36/36/3
f 37/37/2 34/34/2 36/36/3
f 38/38/4 34/34/2 37/37/2
f 39/39/4 38/38/4 37/37/2
f 40/40/5 38/38/4 39/39/4
f 41/41/5 40/40/5 39/39/4
f 42/42/6 40/40/5 41/41/5
f 43/43/6 42/42/6 41/41/5
f 44/44/7 42/42/6 43/43/6
f 45/45/7 44/44/7 43/43/6
f 46/46/8 44/44/7 45/45/7
f 47/47/8 46/46/8 45/45/7
f 48/48/9 46/46/8 47/47/8
f 49/49/9 48/48/9 47/47/8
f 50/50/10 48/48/9 49/49/9
f 51/51/10 50/50/10 49/49/9
f 52/52/11 53/53/10 54/54/10
f 55/55/11 52/52/11 54/54/10
f 56/56/12 52/52/11 55/55/11
f 57/57/12 56/56/12 55/55/11
f 58/58/13 56/56/12 57/57/12
f 59/59/13 58/58/13 57/57/12
f 60/60/14 58/58/13 59/59/13
f 61/61/14 60/60/14 59/59/13
f 62/62/15 60/60/14 61/61/14
f 63/63/15 62/62/15 61/61/14
f 64/64/16 62/62/15 63/63/15
f 65/65/16 64/64/16 63/63/15
f 66/66/17 64/64/16 65/65/16
f 67/67/17 66/66/17 65/65/16
f 68/68/18 66/66/17 67/67/17
f 69/69/18 68/68/18 67/67/17
f 70/70/19 71/71/18 72/72/18
f 73/73/19 70/70/19 72/72/18
f 74/74/20 70/70/19 73/73/19
f 75/75/20 74/74/20 73/73/19
f 76/76/21 74/74/20 75/75/20
f 77/77/21 76/76/21 75/75/20
f 78/78/22 76/76/21 77/77/21
f 79/79/22 78/78/22 77/77/21
f 80/80/23 78/78/22 79/79/22
f 81/81/23 80/80/23 79/79/22
f 82/82/24 80/80/23 81/81/23
f 83/83/24 82/82/24 81/81/23
f 84/84/25 82/82/24 83/83/24
f 85/85/25 84/84/25 83/83/24
f 86/86/26 84/84/25 85/85/25
f 87/87/26 86/86/26 85/85/25
f 88/88/27 89/89/26 90/90/26
f 91/91/27 88/88/27 90/90/26
f 92/92/28 88/88/27 91/91/27
f 93/93/28 92/92/28 91/91/27
f 94/94/29 92/92/28 93/93/28
f 95/95/29 94/94/29 93/93/28
f 96/96/30 94/94/29 95/95/29
f 97/97/30 96/96/30 95/95/29
f 98/98/31 96/96/30 97/97/30
f 99/99/31 98/98/31 97/97/30
f 100/100/32 98/98/31 99/99/31
f 101/101/32 100/100/32 99/99/31
f 102/102/33 100/100/32 101/101/32
f 103/103/33 102/102/33 101/101/32
f 104/104/3 102/102/33 103/103/33
f 105/105/3 104/104/3 103/103/33
f 106/106/34 107/107/34 108/108/34
f 108/108/34 107/107/34 109/109/34
f 109/109/34 107/107/34 110/110/34
f 110/110/34 107/107/34 111/111/34
f 111/111/34 107/107/34 112/112/34
f 112/112/34 107/107/34 113/113/34
f 113/113/34 107/107/34 114/114/34
f 114/114/34 107/107/34 115/115/34
f 115/115/34 107/107/34 116/116/34
f 116/116/34 107/107/34 117/117/34
f 117/117/34 107/107/34 118/118/34
f 118/118/34 107/107/34 119/119/34
f 119/119/34 107/107/34 120/120/34
f 120/120/34 107/107/34 121/121/34
f 121/121/34 107/107/34 122/122/34
f 122/122/34 107/107/34 123/123/34
f 123/123/34 107/107/34 124/124/34
f 124/124/34 107/107/34 125/125/34
f 125/125/34 107/107/34 126/126/34
f 126/126/34 107/107/34 127/127/34
f 127/127/34 107/107/34 128/128/34
f 128/128/34 107/107/34 129/129/34
f 129/129/34 107/107/34 130/130/34
f 130/130/34 107/107/34 131/131/34
f 131/131/34 107/107/34 132/132/34
f 132/132/34 107/107/34 133/133/34
f 133/133/34 107/107/34 134/134/34
f 134/134/34 107/107/34 135/135/34
f 135/135/34 107/107/34 136/136/34
f 136/136/34 107/107/34 137/137/34
f 137/137/34 107/107/34 138/138/34
f 138/138/34 107/107/34 106/106/34
